<?xml version="1.0" encoding="UTF-8" standalone="no"?>
<!-- Generator: Adobe Illustrator 26.5.0, SVG Export Plug-In . SVG Version: 6.00 Build 0)  -->

<svg
   version="1.1"
   x="0px"
   y="0px"
   width="400"
   height="400"
   viewBox="0 0 400 400"
   enable-background="new 0 0 48 44"
   xml:space="preserve"
   id="svg8"
   sodipodi:docname="App tile.svg"
   inkscape:version="1.4.2 (f4327f4, 2025-05-13)"
   inkscape:export-filename="App tile.png"
   inkscape:export-xdpi="96"
   inkscape:export-ydpi="96"
   xmlns:inkscape="http://www.inkscape.org/namespaces/inkscape"
   xmlns:sodipodi="http://sodipodi.sourceforge.net/DTD/sodipodi-0.dtd"
   xmlns:xlink="http://www.w3.org/1999/xlink"
   xmlns="http://www.w3.org/2000/svg"
   xmlns:svg="http://www.w3.org/2000/svg"><defs
   id="defs8"><linearGradient
     id="linearGradient11"
     inkscape:collect="always"><stop
       style="stop-color:#ff6060;stop-opacity:0.67608696;"
       offset="0.63576162"
       id="stop11" /><stop
       style="stop-color:#ffffff;stop-opacity:0;"
       offset="1"
       id="stop12" /></linearGradient><radialGradient
     inkscape:collect="always"
     xlink:href="#linearGradient11"
     id="radialGradient12"
     cx="24"
     cy="26.76437"
     fx="24"
     fy="26.76437"
     r="21.6"
     gradientUnits="userSpaceOnUse"
     gradientTransform="matrix(0.97222226,0,0,0.97222226,0.66666712,0.74345522)" /></defs><sodipodi:namedview
   id="namedview8"
   pagecolor="#ffffff"
   bordercolor="#000000"
   borderopacity="0.25"
   inkscape:showpageshadow="2"
   inkscape:pageopacity="0.0"
   inkscape:pagecheckerboard="0"
   inkscape:deskcolor="#d1d1d1"
   inkscape:zoom="1.9"
   inkscape:cx="171.57895"
   inkscape:cy="186.05263"
   inkscape:window-width="1920"
   inkscape:window-height="1129"
   inkscape:window-x="-8"
   inkscape:window-y="-8"
   inkscape:window-maximized="1"
   inkscape:current-layer="svg8" />

<g
   id="Layer_2"
   style="display:inline"
   transform="scale(8.3333333)">
	<rect
   style="fill:#508bdb;fill-opacity:1;stroke:#7f0914;stroke-width:0;stroke-linecap:round;stroke-linejoin:round;stroke-dasharray:none;stroke-opacity:0"
   id="rect8"
   width="48"
   height="48"
   x="0"
   y="0"
   rx="2.4000001"
   ry="2.4000001"
   inkscape:label="Rectangle blue" /><rect
   style="display:inline;fill:#ffffff;fill-opacity:1;stroke:#7f0914;stroke-width:0;stroke-linecap:round;stroke-linejoin:round;stroke-dasharray:none;stroke-opacity:0"
   id="rect9"
   width="43.200001"
   height="37.768421"
   x="2.4000001"
   y="7.8801599"
   rx="1.8"
   ry="1.8"
   inkscape:label="Rectangle white" /><rect
   style="display:inline;fill:url(#radialGradient12);stroke:#7f0914;stroke-width:0;stroke-linecap:round;stroke-linejoin:round;stroke-dasharray:none;stroke-opacity:0"
   id="rect11"
   width="42"
   height="42"
   x="3.0000005"
   y="5.7643704"
   rx="1.8"
   ry="1.8"
   inkscape:label="Rectangle radial" /><path
   fill="#3a81de"
   d="M 46,47.999998 H 2 c -1.1,0 -2,-0.981822 -2,-2.181819 V 2.1818177 C 0,0.98181809 0.9,0 2,0 h 44 c 1.1,0 2,0.98181809 2,2.1818177 V 45.818179 c 0,1.199997 -0.9,2.181819 -2,2.181819 z"
   id="path1"
   style="display:none;stroke-width:1" />
	<path
   fill="#ffffff"
   d="M 45,8.0000004 H 3 c -0.6,0 -1,0.4461649 -1,1.1154106 v 35.69314 c 0,0.669251 0.4,1.115409 1,1.115409 h 42 c 0.6,0 1,-0.446158 1,-1.115409 V 9.115411 C 46,8.4461653 45.6,8.0000004 45,8.0000004 Z"
   id="path2"
   style="display:none;stroke-width:1" />
	<path
   fill="#f0d800"
   d="m 17.6,6.00004 h -2.4 c -0.4,0 -0.8,-0.4 -0.8,-0.8 v -2.4 c 0,-0.4 0.4,-0.8 0.8,-0.8 h 2.4 c 0.4,0 0.8,0.4 0.8,0.8 v 2.4 c 0,0.4 -0.4,0.8 -0.8,0.8 z"
   id="path3"
   inkscape:label="Green button"
   style="fill:#00ca4e;fill-opacity:1" />
	<path
   fill="#00753f"
   d="M 11.6,6 H 9.2 C 8.8,6 8.4,5.6 8.4,5.2 V 2.8 C 8.4,2.4 8.8,2 9.2,2 h 2.4 c 0.4,0 0.8,0.4 0.8,0.8 V 5.2 C 12.4,5.6 12,6 11.6,6 Z"
   id="path4"
   style="fill:#ffbd44;fill-opacity:1"
   inkscape:label="Orange button" />
	<path
   fill="#d40008"
   d="m 5.6000001,6 h -2.4 c -0.4,0 -0.8,-0.4 -0.8,-0.8 V 2.8 c 0,-0.4 0.4,-0.8 0.8,-0.8 h 2.4 c 0.4,0 0.8,0.4 0.8,0.8 v 2.4 c 0,0.4 -0.4,0.8 -0.8,0.8 z"
   id="path5"
   style="fill:#ff605c;fill-opacity:1"
   inkscape:label="Red button" />
</g>
<g
   id="Crosshair"
   style="display:inline"
   transform="matrix(9.375,0,0,9.3750001,-24.33333,-9.3746629)"
   inkscape:label="Crosshair">
	
	
		<circle
   fill="none"
   stroke="#231f20"
   stroke-width="2"
   stroke-linecap="round"
   stroke-linejoin="round"
   stroke-miterlimit="10"
   cx="24"
   cy="25"
   r="12"
   id="circle7"
   style="stroke:#b40e0e;stroke-opacity:1;fill:#ffe9db;fill-opacity:1" />
	
		<circle
   fill="none"
   stroke="#231f20"
   stroke-width="2"
   stroke-linecap="round"
   stroke-linejoin="round"
   stroke-miterlimit="10"
   cx="24"
   cy="25"
   r="6"
   id="circle8"
   style="stroke:#f12828;stroke-opacity:1;fill:#ffffe1;fill-opacity:1" /><line
   fill="none"
   stroke="#231f20"
   stroke-width="2"
   stroke-linecap="round"
   stroke-linejoin="round"
   stroke-miterlimit="10"
   x1="24"
   y1="10"
   x2="24"
   y2="40"
   id="line6"
   style="display:inline;stroke:#7f0914;stroke-opacity:1" /><line
   fill="none"
   stroke="#231f20"
   stroke-width="2"
   stroke-linecap="round"
   stroke-linejoin="round"
   stroke-miterlimit="10"
   x1="9"
   y1="25"
   x2="39"
   y2="25"
   id="line5"
   style="display:inline;stroke:#7f0914;stroke-opacity:1" /><g
   id="g7"
   style="display:inline">
		
		
	</g>
</g>
</svg>
